<?xml version="1.0" standalone="no"?>
<!DOCTYPE svg PUBLIC "-//W3C//DTD SVG 20010904//EN"
 "http://www.w3.org/TR/2001/REC-SVG-20010904/DTD/svg10.dtd">
<svg version="1.0" xmlns="http://www.w3.org/2000/svg"
 width="512.000000pt" height="512.000000pt" viewBox="0 0 512.000000 512.000000"
 preserveAspectRatio="xMidYMid meet">

<g transform="translate(0.000000,512.000000) scale(0.100000,-0.100000)"
fill="#000000" stroke="none">
<path d="M380 3977 c-25 -7 -65 -24 -90 -37 -37 -21 -46 -31 -48 -57 -7 -71
93 -193 203 -248 80 -39 168 -41 243 -6 55 26 74 24 165 -14 l35 -14 -10 -48
c-6 -26 -11 -49 -13 -51 -1 -1 -71 -22 -155 -46 -89 -26 -160 -52 -170 -63 -9
-10 -54 -110 -99 -222 -84 -208 -91 -240 -53 -260 9 -5 107 -37 217 -71 110
-34 204 -66 208 -70 8 -7 -24 -116 -159 -546 l-44 -142 -68 -40 c-70 -42 -139
-108 -165 -158 -8 -16 -76 -177 -152 -358 -151 -362 -153 -370 -95 -428 l28
-28 241 0 c266 0 271 1 271 64 0 42 -23 108 -51 147 -11 16 -19 33 -17 38 2 4
65 67 140 140 l137 132 120 34 c66 19 126 35 134 35 8 0 20 -13 27 -30 19 -46
65 -87 253 -224 l176 -129 -20 -38 c-30 -59 -36 -125 -14 -149 17 -19 31 -20
244 -20 206 0 229 2 258 20 36 22 56 75 44 118 -5 15 -70 128 -144 251 -134
221 -136 225 -121 250 9 13 25 39 36 58 11 18 26 33 34 33 28 0 299 -32 303
-36 3 -2 8 -33 12 -69 10 -79 27 -112 124 -243 l76 -104 -32 -31 c-63 -63
-102 -193 -69 -232 11 -13 50 -15 269 -15 236 0 258 2 288 20 37 22 56 75 43
120 -5 16 -54 112 -109 214 l-101 186 33 46 32 46 65 -6 c36 -3 77 -6 91 -6
22 0 28 -7 42 -54 27 -84 66 -127 219 -242 79 -59 144 -108 146 -110 2 -1 -6
-20 -17 -43 -32 -61 -38 -126 -16 -151 17 -19 32 -20 269 -20 275 0 281 1 311
60 19 36 19 63 1 99 -8 15 -81 122 -162 237 l-148 209 -7 75 c-4 41 -8 122 -8
180 l-1 105 67 38 c36 20 67 36 68 35 1 -2 33 -73 71 -158 104 -232 141 -282
264 -353 91 -53 219 -69 250 -32 6 7 25 74 42 147 16 73 33 136 37 140 3 4 94
28 201 53 107 25 208 51 224 57 57 23 82 99 51 158 -21 40 -61 59 -145 66 -39
4 -67 10 -63 14 4 4 80 24 168 44 88 21 170 45 183 53 59 37 66 127 13 177
-26 25 -42 29 -277 61 -137 19 -261 35 -275 35 -23 0 -82 66 -389 430 -357
424 -419 489 -523 549 -138 79 -339 111 -492 78 -38 -8 -533 -180 -1099 -381
-566 -201 -1036 -366 -1045 -366 -12 0 -323 94 -378 115 -9 3 7 52 50 157 l63
153 159 47 c87 26 166 55 175 65 10 10 26 64 39 127 27 139 26 140 -106 185
l-100 34 -28 64 c-31 72 -75 114 -144 138 -62 22 -185 28 -241 12z m200 -125
c33 -13 50 -28 67 -57 l22 -40 -32 -17 c-41 -22 -62 -22 -121 -2 -54 19 -146
98 -130 113 25 24 133 26 194 3z m2745 -352 c85 -22 165 -62 232 -117 34 -27
709 -817 736 -860 4 -7 -25 -34 -74 -68 -93 -66 -110 -92 -85 -130 28 -42 59
-33 183 51 l113 77 202 -27 c112 -15 212 -30 223 -33 15 -4 -293 -85 -492
-128 -13 -3 -29 -15 -37 -28 -8 -12 -42 -143 -75 -291 -34 -148 -63 -272 -66
-274 -9 -9 -80 17 -128 47 -66 43 -97 91 -199 317 -49 109 -95 202 -101 206
-7 4 -23 8 -36 8 -13 0 -199 -99 -414 -220 -356 -201 -437 -239 -437 -210 0 6
32 53 70 105 79 107 88 143 45 171 -20 13 -31 14 -49 6 -26 -12 -347 -446
-354 -479 -2 -13 31 -86 96 -205 54 -100 104 -193 111 -205 l12 -23 -181 0
-181 0 15 21 c8 12 36 35 63 53 74 48 72 58 -52 227 -59 79 -111 153 -115 165
-5 11 -18 132 -30 269 -12 137 -26 257 -31 266 -11 22 -42 32 -69 24 -38 -12
-42 -37 -30 -181 7 -74 10 -137 8 -140 -3 -2 -97 6 -209 19 -152 17 -203 26
-201 36 1 7 34 87 73 178 43 103 67 173 64 184 -4 11 -17 27 -30 35 -20 13
-28 14 -51 2 -22 -11 -41 -49 -111 -213 l-84 -200 -417 -119 -417 -118 -187
-182 c-134 -130 -188 -189 -188 -205 0 -14 17 -38 45 -63 25 -23 45 -45 45
-50 0 -4 -70 -8 -155 -8 -85 0 -155 3 -155 6 0 3 59 147 132 321 110 263 138
322 172 358 29 31 101 77 235 152 204 114 224 131 203 178 -19 41 -53 42 -127
1 -36 -19 -65 -31 -65 -25 0 11 177 579 182 584 2 2 170 63 373 135 204 72
667 237 1030 367 362 129 677 238 700 243 75 15 189 11 270 -10z m1252 -1421
c62 -7 111 -14 109 -17 -4 -3 -82 -22 -275 -67 -22 -6 -23 -4 -17 32 13 70 16
75 44 69 15 -3 78 -11 139 -17z m-1132 -276 l7 -158 150 -215 c83 -118 155
-221 161 -227 7 -10 -26 -13 -163 -13 l-172 0 16 23 c9 12 23 32 32 44 31 43
13 64 -171 202 -96 72 -181 141 -190 154 -21 33 -57 141 -48 145 4 1 87 47
183 102 96 55 178 100 181 100 4 0 10 -71 14 -157z m-1685 13 c0 -2 -16 -30
-35 -62 -19 -32 -35 -64 -35 -72 0 -8 65 -122 145 -253 l145 -239 -151 0 -151
0 16 23 c53 73 51 67 35 96 -8 14 -109 94 -224 178 -115 84 -217 166 -228 182
l-18 30 54 16 c30 9 121 35 203 59 125 37 244 57 244 42z"/>
</g>
</svg>
