<?xml version="1.0" encoding="iso-8859-1"?>
<!-- Uploaded to: SVG Repo, www.svgrepo.com, Generator: SVG Repo Mixer Tools -->
<svg fill="#000000" height="800px" width="800px" version="1.1" id="Layer_1" xmlns="http://www.w3.org/2000/svg" xmlns:xlink="http://www.w3.org/1999/xlink" 
	 viewBox="0 0 512 512" xml:space="preserve">
<g>
	<g>
		<g>
			<path d="M298.667,341.333h-85.333c-11.782,0-21.333,9.551-21.333,21.333S201.551,384,213.333,384h21.333v42.667
				c0,11.782,9.551,21.333,21.333,21.333s21.333-9.551,21.333-21.333V384h21.333c11.782,0,21.333-9.551,21.333-21.333
				S310.449,341.333,298.667,341.333z"/>
			<path d="M446.853,154.095C436.921,75.59,364.579,0,289.045,0C244.707,0,201.27,21.613,172.22,55.449
				c-9.344-3.416-19.301-5.209-29.5-5.209c-46.047,0-83.655,36.165-85.967,81.637C22.923,153.637,0,193.779,0,234.667
				c0,51.167,32.644,107.132,76.869,126.249l4.051,1.751h25.755v70.571c0,43.112,32.714,78.763,74.027,78.763h150.592
				c41.314,0,74.048-35.653,74.048-78.763v-70.571h23.784l2.395-0.56C479.303,350.942,512,307.345,512,256
				C512,207.491,487.865,168.834,446.853,154.095z M362.675,433.237c0,20.321-14.484,36.096-31.381,36.096H180.702
				c-16.89,0-31.36-15.768-31.36-36.096V298.667h213.325v64h0.009V433.237z M298.667,256h-85.333v-21.333
				C213.333,211.249,232.582,192,256,192s42.667,19.249,42.667,42.667V256z M424.015,320h-18.673v-42.667
				c0-0.057-0.008-0.112-0.009-0.169V256h-21.325h-42.675v-21.333c0-46.982-38.351-85.333-85.333-85.333
				s-85.333,38.351-85.333,85.333V256h-42.658h-21.342v64H90.149c-26.092-13.769-47.482-51.918-47.482-85.333
				c0-29.044,18.953-58.769,44.525-71.023l12.115-5.805v-13.434c0-0.349,0.02-0.856,0.069-1.711
				c0.063-1.063,0.063-1.063,0.087-1.471l0.007-2.337c-0.054-0.935-0.054-0.935-0.102-1.615c-0.064-1.006-0.062-0.958-0.062-0.953
				c0-23.973,19.441-43.413,43.413-43.413c8.657,0,16.909,2.539,23.981,7.244l17.762,11.817l11.816-17.763
				c20.508-30.827,56.85-51.539,92.766-51.539c56.121,0,115.485,66.519,116.29,128.278l0.227,17.452l17.152,3.234
				c29.423,5.547,46.619,29.234,46.619,64.369C469.333,287.137,450.826,312.637,424.015,320z"/>
		</g>
	</g>
</g>
</svg>